<svg id="Layer_1" data-name="Layer 1" xmlns="http://www.w3.org/2000/svg" viewBox="0 0 322.91 68.05"><defs><style>.cls-1{fill:#fff;}</style></defs><path class="cls-1" d="M247.49,59A4.12,4.12,0,0,1,243.2,63h-6.11V48.76h5.66a4,4,0,0,1,4.19,4,3.55,3.55,0,0,1-1.45,2.92A3.63,3.63,0,0,1,247.49,59Zm-8.06-8v3.75h3.32a1.88,1.88,0,0,0,0-3.75Zm5.71,7.87a1.94,1.94,0,0,0-1.94-2h-3.77v4h3.77A1.94,1.94,0,0,0,245.14,58.84Z"/><path class="cls-1" d="M256,48.76V63H253.6V48.76Z"/><path class="cls-1" d="M275.32,55.9A6.87,6.87,0,0,1,268.49,63h-5.61V48.76h5.61A6.86,6.86,0,0,1,275.32,55.9Zm-2.27,0c0-2.83-1.85-4.89-4.56-4.89h-3.27v9.78h3.27A4.55,4.55,0,0,0,273.05,55.9Z"/><path class="cls-1" d="M290.2,60.79V63h-8.67V48.76h8.57V51h-6.22v3.71h5.71v2.22h-5.71v3.85Z"/><rect class="cls-1" x="316.69" y="48.76" width="6.22" height="2.24"/><rect class="cls-1" x="237.09" y="65.81" width="6.22" height="2.24"/><polygon class="cls-1" points="314.56 60.8 314.56 56.94 320.27 56.94 320.27 54.72 314.56 54.72 314.56 53.24 312.22 53.24 312.22 63.04 320.88 63.04 320.88 60.8 314.56 60.8"/><path class="cls-1" d="M301.48,54.78c-2.08-.65-2.88-1.12-2.88-2.22s.88-1.78,2.24-1.78a3,3,0,0,1,2.33,1h1.58V50.09a5.27,5.27,0,0,0-3.91-1.59c-2.4,0-4.58,1.49-4.58,4.12s2.16,3.51,4.38,4.18,3.24,1.08,3.24,2.34c0,1-.79,1.88-2.65,1.88a3.45,3.45,0,0,1-3.09-1.49h-1.65v1.76a5.76,5.76,0,0,0,4.68,2c3,0,5.06-1.59,5.06-4.2C306.23,56.27,303.84,55.53,301.48,54.78Z"/><polygon class="cls-1" points="208.33 48.66 208.33 43.82 218 43.82 222.84 48.66 222.84 53.5 218 58.34 208.33 58.34 208.33 48.66"/><polygon class="cls-1" points="208.33 63.18 213.16 68.01 218 68.01 222.84 63.18 222.84 58.34 218 53.5 208.33 53.5 208.33 63.18"/><path class="cls-1" d="M177.18,45.3h2.34a1.41,1.41,0,0,1,1.55,1.37,1.18,1.18,0,0,1-.6,1.06,1.23,1.23,0,0,1,.86,1.19,1.41,1.41,0,0,1-1.56,1.39h-2.59Zm2.2,2.11a.61.61,0,0,0,.66-.63.62.62,0,0,0-.69-.62h-1.17v1.25Zm.23,2.05a.6.6,0,0,0,.66-.62.62.62,0,0,0-.66-.65h-1.43v1.27Z"/><path class="cls-1" d="M186.52,45.3h1.15l-2,3.12v1.89h-1V48.42l-2.06-3.12h1.19l1.37,2.11Z"/><path class="cls-1" d="M195.26,51.79h-1l2.87-7.12h1Z"/><path class="cls-1" d="M31.08,52.41a9,9,0,0,0-9.16-7.31c-6.11,0-9.74,4.58-9.74,10.78,0,6.85,3.67,11.35,9.86,11.35,5.37,0,8.54-3.18,9.25-6.86H27.57c-.49,2.36-2.48,4.05-5.53,4.05-3.43,0-6.07-2.35-6.23-7.51H31.49A19.54,19.54,0,0,0,31.08,52.41ZM15.85,54.14c.37-4,2.72-6.23,6.07-6.23s5.61,2.15,6,6.23Z"/><path class="cls-1" d="M58.73,45.23a7.14,7.14,0,0,0-6.64,4,6.37,6.37,0,0,0-6.23-4A6.93,6.93,0,0,0,40,48.28h-.09v-2.6H36.4v21H40V55c0-4.21,1.9-6.81,5-6.81,2.68,0,4.25,1.94,4.25,5.24V66.65h3.63V54.76c0-4,1.9-6.56,5-6.56,2.68,0,4.29,1.57,4.29,5.78V66.65h3.63v-13C65.79,48,63.19,45.23,58.73,45.23Z"/><path class="cls-1" d="M94.36,45.23a7.15,7.15,0,0,0-6.65,4,6.36,6.36,0,0,0-6.23-4,6.93,6.93,0,0,0-5.86,3.05h-.09v-2.6H72v21h3.63V55c0-4.21,1.9-6.81,5-6.81,2.68,0,4.25,1.94,4.25,5.24V66.65h3.64V54.76c0-4,1.89-6.56,4.95-6.56,2.68,0,4.29,1.57,4.29,5.78V66.65h3.63v-13C101.41,48,98.81,45.23,94.36,45.23Z"/><path class="cls-1" d="M125,52.41a9,9,0,0,0-9.16-7.31c-6.11,0-9.74,4.58-9.74,10.78,0,6.85,3.67,11.35,9.86,11.35,5.37,0,8.55-3.18,9.25-6.86h-3.71c-.5,2.36-2.48,4.05-5.54,4.05-3.42,0-6.06-2.35-6.23-7.51h15.69A19.48,19.48,0,0,0,125,52.41Zm-15.23,1.73c.37-4,2.73-6.23,6.07-6.23s5.61,2.15,6,6.23Z"/><path class="cls-1" d="M159.22,5.93l-2-4.09A3.26,3.26,0,0,0,152.4.63L135.82,12.81a14.77,14.77,0,0,1-14.93,1.53l-1.16-.5L101.29,6a7.36,7.36,0,0,0-2.87-.58,7.28,7.28,0,0,0-4,1.22L85.5,12.49a6.53,6.53,0,0,0-1.76,1.67,3.09,3.09,0,0,0,.53,4.13l0,0L89.72,23a6.69,6.69,0,0,0,7.58.77L105.84,19a15.46,15.46,0,0,1,12.6-1.09l.24.08q3.69,1.25,7.25,2.8l13.69,6a7.34,7.34,0,0,0,9-2.58L159,9.1h0A3.17,3.17,0,0,0,159.22,5.93Z"/><polygon class="cls-1" points="0 33.63 0 37.26 3.63 37.26 3.63 66.65 7.26 66.65 7.26 37.26 7.26 33.63 3.63 33.63 0 33.63"/></svg>