<svg id="Layer_1" data-name="Layer 1" xmlns="http://www.w3.org/2000/svg" viewBox="0 0 462.07 97.7"><defs><style>.cls-1{fill:#fff;}</style></defs><path class="cls-1" d="M157.92,61c0,9.54-7.73,16.45-17.27,16.45H116V19.93h22.86c9.29,0,16.85,6.74,16.85,16a14.18,14.18,0,0,1-5.83,11.76A14.65,14.65,0,0,1,157.92,61ZM125.44,28.81V43.94h13.4a7.36,7.36,0,0,0,7.4-7.57,7.36,7.36,0,0,0-7.4-7.56Zm23,31.74a7.82,7.82,0,0,0-7.81-8.06H125.44V68.61h15.21A7.82,7.82,0,0,0,148.46,60.55Z"/><path class="cls-1" d="M192,19.93V77.49h-9.45V19.93Z"/><path class="cls-1" d="M270.15,48.71c0,16-11.68,28.78-27.55,28.78H220V19.93H242.6C258.47,19.93,270.15,32.59,270.15,48.71Zm-9.13,0C261,37.28,253.54,29,242.6,29H229.44V68.44H242.6C253.54,68.44,261,60.05,261,48.71Z"/><path class="cls-1" d="M330.17,68.44v9H295.22V19.93h34.54v9H304.68v15h23v9h-23V68.44Z"/><rect class="cls-1" x="436.99" y="19.93" width="25.08" height="9.05"/><rect class="cls-1" x="115.98" y="88.66" width="25.08" height="9.05"/><polygon class="cls-1" points="428.42 68.44 428.42 52.9 451.44 52.9 451.44 43.94 428.42 43.94 428.42 37.98 418.96 37.98 418.96 77.49 453.91 77.49 453.91 68.44 428.42 68.44"/><path class="cls-1" d="M375.63,44.18c-8.38-2.63-11.59-4.52-11.59-9s3.53-7.15,9-7.15a12.12,12.12,0,0,1,9.4,3.88h6.37V25.26a21.36,21.36,0,0,0-15.77-6.4c-9.7,0-18.5,6-18.5,16.61,0,10.85,8.72,14.14,17.68,16.85,8.55,2.64,13.08,4.36,13.08,9.46,0,4.19-3.21,7.57-10.69,7.57-6,0-10-2.29-12.48-6h-6.65v7.07c4,5.06,10.48,8.13,18.88,8.13,12,0,20.39-6.42,20.39-16.94C394.79,50.19,385.17,47.23,375.63,44.18Z"/><polygon class="cls-1" points="0 19.51 0 0 39.02 0 58.53 19.51 58.53 39.02 39.02 58.53 0 58.53 0 19.51"/><polygon class="cls-1" points="0 78.04 19.51 97.56 39.02 97.56 58.53 78.04 58.53 58.53 39.02 39.02 0 39.02 0 78.04"/></svg>