<?xml version="1.0" encoding="UTF-8"?>
<svg id="Layer_1" data-name="Layer 1" xmlns="http://www.w3.org/2000/svg" xmlns:xlink="http://www.w3.org/1999/xlink" viewBox="0 0 126.96 248.48">
  <defs>
    <style>
      .cls-1 {
        clip-path: url(#clippath-2);
      }

      .cls-2 {
        fill: none;
      }

      .cls-2, .cls-3, .cls-4 {
        stroke-width: 0px;
      }

      .cls-5 {
        clip-path: url(#clippath-1);
      }

      .cls-3 {
        fill: #fff;
      }

      .cls-6 {
        clip-path: url(#clippath);
      }

      .cls-7 {
        clip-path: url(#clippath-3);
      }

      .cls-4 {
        fill: #e30512;
      }
    </style>
    <clipPath id="clippath">
      <rect class="cls-2" width="126.96" height="248.48"/>
    </clipPath>
    <clipPath id="clippath-1">
      <rect class="cls-2" width="126.96" height="248.48"/>
    </clipPath>
    <clipPath id="clippath-2">
      <rect class="cls-2" width="126.96" height="248.48"/>
    </clipPath>
    <clipPath id="clippath-3">
      <rect class="cls-2" width="126.96" height="248.48"/>
    </clipPath>
  </defs>
  <rect class="cls-3" width="126.96" height="248.48"/>
  <rect class="cls-4" x="6.07" y="127.24" width="115.35" height="115.13"/>
  <g class="cls-6">
    <path class="cls-3" d="m24.99,166.25h.88c3.65,0,6.57-1.52,6.57-5.96,0-4.67-2.92-5.98-6.57-5.98h-.88v11.94Zm1.17-14.67c5.56,0,9.7,2.34,9.7,8.73,0,6.06-4.27,8.58-9.7,8.58h-4.5v-17.31h4.5Z"/>
  </g>
  <polygon class="cls-3" points="42.27 166 48.79 166 48.79 168.9 38.98 168.9 38.98 151.56 48.74 151.56 48.74 154.44 42.27 154.44 42.27 158.63 48.22 158.63 48.22 161.43 42.27 161.43 42.27 166"/>
  <g class="cls-5">
    <path class="cls-3" d="m61.03,154.72c-1.29-.54-2.33-.74-3.34-.74-1.73,0-2.85.77-2.85,1.95,0,1.08.54,1.75,2.97,2.65,3.05,1.13,4.35,2.62,4.35,5.19,0,3.31-2.41,5.42-6.21,5.42-1.58,0-3-.26-4.35-.75l.31-3.06c1.42.72,2.72,1,3.86,1,1.73,0,3-.77,3-2.16,0-1.31-.67-2-3.18-2.98-2.92-1.1-4.17-2.52-4.17-4.96,0-3.08,2.38-5.01,5.9-5.01,1.45,0,2.69.18,3.99.62l-.26,2.83h-.03Z"/>
  </g>
  <rect class="cls-3" x="65.14" y="151.56" width="3.31" height="17.34"/>
  <g class="cls-1">
    <path class="cls-3" d="m85.22,155.16c-1.01-.54-2.67-.98-4.35-.98-3.49,0-5.74,2.31-5.74,5.99s2.04,6.01,5.69,6.01c.67,0,1.42-.08,1.94-.26v-4.32h-3.52v-2.77h6.68v9.3c-1.76.64-3.65.93-5.54.93-5.04,0-8.8-3.36-8.8-8.91s3.62-8.76,9.34-8.76c1.63,0,3.23.18,4.58.67l-.23,3.11h-.05Z"/>
    <path class="cls-3" d="m100.2,151.56h3v17.34h-4.19l-4.22-8.5c-.85-1.72-1.94-4.19-2.38-5.34h-.05c.08,1.08.13,4.24.13,5.73v8.09h-3v-17.34h4.43l4.14,8.55c.62,1.23,1.73,3.85,2.25,5.06h.05c-.08-1.26-.13-4.62-.13-6.34v-7.27l-.03.02Z"/>
    <path class="cls-3" d="m29.28,182.87c-.36-1.03-.9-3.03-1.14-3.93h-.05c-.23.9-.85,2.88-1.19,3.93l-1.37,4.06h5.12l-1.37-4.06Zm7.3,10.68h-3.6l-1.42-4.01h-6.86l-1.45,4.01h-3.42l6.47-17.34h3.75l6.55,17.34h-.03Z"/>
    <path class="cls-3" d="m48.51,181.95c-.16-.8-.49-2.31-.62-3.26h-.05c-.13.95-.39,2.44-.54,3.26l-2.46,11.59h-4.19l-4.55-17.34h3.55l2.38,10.38c.13.57.65,3.08.78,4.24h.05c.16-1.18.65-3.67.75-4.24l2.15-10.38h4.4l2.28,10.38c.13.59.6,3.11.75,4.24h.05c.15-1.16.65-3.6.78-4.24l2.36-10.38h3.29l-4.4,17.34h-4.17l-2.59-11.59h.03Z"/>
    <path class="cls-3" d="m68.53,182.87c-.36-1.03-.93-3.03-1.14-3.93h-.05c-.23.9-.85,2.88-1.19,3.93l-1.37,4.06h5.12l-1.37-4.06Zm7.3,10.68h-3.6l-1.42-4.01h-6.86l-1.45,4.01h-3.42l6.44-17.34h3.75l6.55,17.34Z"/>
    <path class="cls-3" d="m81.37,183.67h.96c2.61,0,3.8-.69,3.8-2.44,0-1.9-1.42-2.29-3.8-2.29h-.96v4.73Zm-3.34-7.45h4.76c4.06,0,6.73.93,6.73,4.55,0,2.29-1.29,3.65-3.44,4.08v.05c1.16.33,1.58,1.03,2.1,2.31l2.53,6.32h-3.65l-1.84-4.91c-.67-1.82-.98-2.28-3.03-2.28h-.88v7.19h-3.34v-17.34l.05.03Z"/>
    <path class="cls-3" d="m96.92,190.89h.88c3.65,0,6.57-1.52,6.57-5.96,0-4.67-2.92-5.98-6.57-5.98h-.88v11.94Zm1.16-14.67c5.56,0,9.7,2.34,9.7,8.73,0,6.06-4.27,8.58-9.7,8.58h-4.5v-17.34h4.5v.03Z"/>
    <path class="cls-3" d="m21.16,217.83v-2.88c1.6-1.57,7.48-6.45,7.48-9.61,0-1.57-1.4-2.31-2.82-2.31s-2.85.64-3.98,1.39l-.26-2.88c1.55-.8,3.36-1.23,5.12-1.23,3.29,0,5.41,1.64,5.41,5.03,0,3.65-3.67,7.01-6.49,9.79h7.04v2.72h-11.46l-.03-.03Z"/>
    <path class="cls-3" d="m43.64,209.25c0-2.23,0-6.4-2.56-6.4s-2.51,4.16-2.51,6.4,0,6.29,2.51,6.29,2.56-4.14,2.56-6.29m-8.56,0c0-4.31,1.32-8.96,5.98-8.96,5.05,0,6.03,4.96,6.03,8.96s-1.03,8.86-6.03,8.86c-5.3,0-5.98-5.27-5.98-8.86"/>
    <path class="cls-3" d="m49.33,217.83v-2.88c1.6-1.57,7.48-6.45,7.48-9.61,0-1.57-1.4-2.31-2.82-2.31s-2.85.64-3.98,1.39l-.26-2.88c1.55-.8,3.36-1.23,5.12-1.23,3.29,0,5.41,1.64,5.41,5.03,0,3.65-3.67,7.01-6.5,9.79h7.04v2.72h-11.46l-.03-.03Z"/>
  </g>
  <path class="cls-3" d="m70.27,211.67v-7.48h-.05l-4.27,7.48h4.32Zm-7.45-.23l6.44-10.86h4.29v11.1h2.2v2.57h-2.2v3.57h-3.31v-3.57h-7.45v-2.8h.03Z"/>
  <rect class="cls-4" x="6.07" y="6.06" width="115.35" height="115.12"/>
  <g class="cls-7">
    <path class="cls-3" d="m78.93,72.71h18.21v-18.18h-18.21v18.18Zm-24.29,24.24h18.21V30.29h-18.21v66.65h0ZM97.13,30.3h-18.21v18.18h18.21v-18.18Zm-57.68-1.21c-5.7,0-10.32,4.61-10.32,10.3s4.62,10.3,10.32,10.3,10.32-4.61,10.32-10.3-4.62-10.3-10.32-10.3m-9.07,67.87h18.21v-42.41h-18.21v42.41Z"/>
  </g>
</svg>