<svg id="Layer_1" data-name="Layer 1" xmlns="http://www.w3.org/2000/svg" viewBox="0 0 1158.72 488.27"><defs><style>.cls-1{fill:#003b4d;}</style></defs><path class="cls-1" d="M963.73,270a112.31,112.31,0,0,0-91.51,7.91l-62.05,34.6a48.47,48.47,0,0,1-55-5.57L715.67,273l-.14-.12a22.49,22.49,0,0,1-3.82-30,46.69,46.69,0,0,1,12.79-12.06L789,188.13a53.12,53.12,0,0,1,50.2-4.59l134,57,8.37,3.67A107.41,107.41,0,0,0,1090,233.05l120.44-88.45a23.62,23.62,0,0,1,35.27,8.8l14.24,29.65a23,23,0,0,1-1.72,22.94l-.09.13-74.95,109.73a53.42,53.42,0,0,1-65.6,18.77l-99.43-43.74q-25.85-11.36-52.64-20.32Z" transform="translate(-103.48 -140)"/><path class="cls-1" d="M329.22,520.65c-7.79-32.68-32.08-53.06-66.55-53.06-44.37,0-70.75,33.27-70.75,78.24,0,49.77,26.68,82.44,71.65,82.44,39,0,62.05-23.08,67.15-49.76h-27c-3.6,17.09-18,29.38-40.17,29.38-24.89,0-44.07-17.09-45.27-54.56H332.22C332.22,540.14,331.32,529.34,329.22,520.65ZM218.6,533.24c2.7-29.08,19.78-45.27,44.07-45.27,23.38,0,40.77,15.59,43.47,45.27Z" transform="translate(-103.48 -140)"/><path class="cls-1" d="M530.08,468.49c-22.48,0-38.07,10.49-48.26,28.78-8.1-18.89-24.28-28.78-45.27-28.78-17.69,0-31.78,7.49-42.57,22.18h-.6V471.78H367.9v152.3h26.38V539.54c0-30.58,13.79-49.47,36.27-49.47,19.49,0,30.88,14.09,30.88,38.08v95.93h26.38V537.74c0-29.08,13.79-47.67,36-47.67,19.48,0,31.18,11.39,31.18,42v92h26.38V529.94C581.35,488.87,562.46,468.49,530.08,468.49Z" transform="translate(-103.48 -140)"/><path class="cls-1" d="M788.81,468.49c-22.49,0-38.08,10.49-48.27,28.78-8.1-18.89-24.28-28.78-45.27-28.78-17.69,0-31.77,7.49-42.57,22.18h-.6V471.78H626.62v152.3H653V539.54c0-30.58,13.79-49.47,36.27-49.47,19.49,0,30.88,14.09,30.88,38.08v95.93h26.39V537.74c0-29.08,13.79-47.67,36-47.67,19.48,0,31.18,11.39,31.18,42v92h26.38V529.94C840.07,488.87,821.18,468.49,788.81,468.49Z" transform="translate(-103.48 -140)"/><path class="cls-1" d="M945.9,607.89c-24.88,0-44.07-17.09-45.26-54.56h113.91c0-13.19-.9-24-3-32.68-7.8-32.68-32.08-53.06-66.56-53.06-44.36,0-70.74,33.27-70.74,78.24,0,49.77,26.67,82.44,71.64,82.44,39,0,62.06-23.08,67.16-49.76h-27C982.48,595.6,968.09,607.89,945.9,607.89ZM945,488c23.39,0,40.77,15.59,43.47,45.27H900.93C903.63,504.16,920.72,488,945,488Z" transform="translate(-103.48 -140)"/><polygon class="cls-1" points="0 244.25 0 270.63 26.38 270.63 26.38 484.08 52.76 484.08 52.76 270.63 52.76 244.25 26.38 244.25 0 244.25"/></svg>