<?xml version="1.0" encoding="UTF-8"?>
<svg id="Layer_1" data-name="Layer 1" xmlns="http://www.w3.org/2000/svg" viewBox="0 0 379.9 382.6">
  <defs>
    <style>
      .cls-1 {
        fill: #000;
        stroke-width: 0px;
      }
    </style>
  </defs>
  <path class="cls-1" d="M362.78,365.82V17.04H16.85v57.46H.03V0h379.87v382.6H.05v-16.78h362.73Z"/>
  <path class="cls-1" d="M144.55,134.85c.31-5.12.28-10.29,1.01-15.34,1.91-13.16,9.84-21.09,22.55-24.21,9.84-2.42,19.65-2.11,29.04,2.01,10.82,4.75,16.34,13.55,17,25.03.51,8.82.61,17.78-.35,26.54-1.69,15.38-11.6,24.79-27.17,25.97-6.68.51-13.72.24-20.19-1.35-13.64-3.35-21.01-13.4-21.49-27.46-.13-3.72-.02-7.45-.02-11.18-.13,0-.25,0-.38-.01ZM165.43,134.47c.36,4.86.32,9.66,1.15,14.3,1.23,6.86,6.16,10.43,13.26,10.35,6.85-.08,12.25-3.71,12.8-10.36.77-9.17.8-18.48.11-27.65-.52-6.88-5.71-10.71-12.33-10.93-7.29-.24-12.38,3.21-13.79,10.2-.93,4.61-.84,9.43-1.2,14.07Z"/>
  <path class="cls-1" d="M63.92,134.52c.59-6.12.51-12.39,1.9-18.32,3.08-13.08,14.15-21.26,29-22.17,6.96-.43,13.87-.06,20.45,2.62,10.7,4.35,17.27,12.21,18.12,23.72.7,9.56.74,19.26-.03,28.82-1.05,13.02-8.91,21.61-21.76,24.74-8.85,2.15-17.84,2.14-26.65-.53-12.19-3.7-19.67-13.33-20.29-26.12-.2-4.23-.03-8.48-.03-12.71-.24-.01-.47-.03-.71-.04ZM113.52,134.64c-.16,0-.33-.01-.49-.02,0-3.47.04-6.95-.03-10.42-.02-1.14-.3-2.29-.53-3.42-1.27-6.36-5.98-10.37-12.41-10.59-7.19-.25-13,3.1-13.63,9.74-.9,9.52-1.01,19.25-.15,28.77.65,7.19,6.21,10.64,13.47,10.43,6.97-.2,11.6-4.01,12.71-11.05.7-4.42.73-8.95,1.06-13.43Z"/>
  <path class="cls-1" d="M248.65,146.67c0,7.57,0,14.86,0,22.16,0,5.24-.24,5.46-5.43,5.47-3.86,0-7.71-.05-11.57.01-2.77.05-4-1.29-4-3.98,0-23.91-.04-47.82.14-71.72,0-1.19,1.98-3.4,3.02-3.39,14.11.15,28.39-.64,42.28,1.32,17.67,2.49,25.89,22.31,16.96,37.92-3.26,5.69-8.43,9.36-14.66,10.31-7.94,1.21-16.06,1.22-24.1,1.74-.64.04-1.27.08-2.63.16ZM248.51,131.01c5.13,0,9.88.19,14.61-.05,5.24-.26,8.58-3.63,9.16-8.73.58-5.06-2.02-10.15-6.56-10.84-5.6-.86-11.37-.64-17.21-.9v20.52Z"/>
  <path class="cls-1" d="M20.97,157.27c10.8,0,21.07,0,31.34,0,5.66,0,5.71.05,5.72,5.89,0,2.44-.04,4.89,0,7.33.04,2.5-.96,3.83-3.63,3.83-16.72-.03-33.44-.02-50.16,0-2.59,0-3.73-1.28-3.73-3.8,0-23.92.02-47.85-.02-71.77,0-2.67,1.27-3.7,3.78-3.69,4.12.02,8.24.15,12.35-.04,3.46-.17,4.41,1.38,4.39,4.61-.1,17.62-.04,35.24-.04,52.86,0,1.51,0,3.02,0,4.8Z"/>
  <path class="cls-1" d="M227.75,216.13c.61-2.11.77-3.98,1.71-5.31.43-.62,2.64-.62,3.55-.08.82.49,1.34,2.11,1.35,3.24.1,10.29.13,20.58.04,30.88-.06,7.19.15,14.44-.65,21.56-1.21,10.9-7.99,16.71-18.98,16.68-4.43-.01-9.03-.42-13.25-1.66-5.2-1.53-8.68-5.44-9.8-10.92-.23-1.1.58-2.41.91-3.63,1.54.51,3.84.55,4.48,1.61,5.07,8.31,9.77,10.57,19.51,8.78,7.52-1.38,11.21-5.45,11.64-13.05.15-2.68.02-5.38.02-8.23-.5.12-.94.09-1.15.3-6.9,6.95-15.22,7.77-23.88,4.71-8.56-3.03-11.79-10.49-12.54-18.77-.5-5.56-.37-11.41.83-16.83,3.61-16.24,22.4-21.77,34.75-10.56.45.41.91.8,1.45,1.27ZM228.76,235.34c-.56-2.93-.9-6.66-2.03-10.15-2.21-6.84-7.86-10.46-15.06-10.22-7.34.25-12.62,3.7-13.95,10.86-1.1,5.93-1.34,12.31-.46,18.26,1.29,8.74,6.67,12.76,14.75,12.78,8.05.02,13.56-4.4,15.54-12.73.62-2.6.75-5.31,1.21-8.82Z"/>
  <path class="cls-1" d="M1.29,226.76c0-10.02.11-20.05-.07-30.06-.06-3.28,1.11-4.25,4.24-4.17,8.35.21,16.71-.08,25.04.32,12.48.6,19.92,6.91,20.95,19.25.89,10.55.81,21.32-.25,31.85-1.13,11.18-8.7,16.87-21.32,17.46-8.46.39-16.96.07-25.43.18-2.68.04-3.2-1.31-3.19-3.61.06-10.41.03-20.81.03-31.22ZM7.69,198.44v57.73c8.69-.45,17.29-.45,25.77-1.47,6.9-.83,11.15-5.71,11.72-12.48.75-8.93,1.22-18,.49-26.9-.92-11.18-6.44-15.98-17.87-16.79-6.52-.46-13.09-.08-20.1-.08Z"/>
  <path class="cls-1" d="M105.19,337.34c3.57-12.67,6.94-24.62,10.31-36.57.17-.62.38-1.23.52-1.85.48-2.21,2.08-3.26,3.93-2.35.88.43,1.56,2.73,1.25,3.89-2.88,10.66-6,21.25-9.05,31.87-1.03,3.57-2.07,7.14-3.08,10.72-.56,1.99-1.35,3.47-3.87,3.47-2.55,0-3.62-1.22-4.3-3.49-3.28-11.07-6.67-22.11-10.03-33.15-.26-.85-.58-1.67-1.21-3.46-2.1,6.9-3.94,12.94-5.78,18.98-1.79,5.89-3.4,11.84-5.47,17.63-.51,1.42-2.47,3.16-3.82,3.2-1.32.05-3.53-1.63-3.93-2.97-4.36-14.36-8.5-28.79-12.51-43.25-.28-.99.59-3.09,1.44-3.45,1.95-.84,3.34.33,3.92,2.44,2.41,8.78,4.87,17.55,7.34,26.32,1.06,3.79,2.17,7.56,3.58,12.45,2.33-7.63,4.35-14.2,6.36-20.78,1.76-5.77,3.54-11.52,5.22-17.31.6-2.08,1.6-3.88,3.91-3.19,1.37.41,3,1.87,3.43,3.21,3.68,11.48,7.12,23.04,10.64,34.57.25.82.63,1.6,1.22,3.11Z"/>
  <path class="cls-1" d="M55.54,345.41c-1.08.33-2.22,1.06-3.24.91-1.32-.19-3.22-.76-3.67-1.73-1.71-3.72-3.07-7.62-4.29-11.53-.86-2.75-2.3-3.71-5.26-3.62-8.22.24-16.46.24-24.68,0-3.02-.09-4.34,1.02-5.16,3.72-1.08,3.55-2.55,6.98-3.71,10.51-.79,2.42-2.46,3.56-4.6,2.48-.79-.39-1.2-2.96-.76-4.16,7.25-20.01,14.68-39.96,22-59.94.86-2.35,2.32-2.98,4.68-2.97,2.37.01,3.75.7,4.61,3.06,7.26,19.87,14.63,39.7,21.96,59.54.27.72.44,1.47.65,2.21.49.51.97,1.01,1.46,1.52ZM40.78,323.75c-4.68-12.66-9.14-24.72-13.61-36.78-.29.08-.58.16-.87.23-4.43,12.07-8.85,24.15-13.39,36.54h27.87Z"/>
  <path class="cls-1" d="M71.2,238.39c-.78,7.2,3.44,14.61,9.58,17.35,5.95,2.65,14.19.79,18.76-4.24.34-.38.55-1.11.92-1.19,1.96-.44,3.96-.72,5.94-1.05-.31,1.61-.11,3.61-1,4.76-5.8,7.5-13.91,9.33-22.78,8.22-8.24-1.03-13.43-6.24-16.04-13.83-2.83-8.25-2.86-16.72,0-25,3.44-10.01,11.54-14.98,22.16-13.99,10.51.98,17.32,7.39,19.11,17.98q1.86,10.99-8.99,10.99c-9.23,0-18.47,0-27.65,0ZM102.39,232.71c.03-6.85-2.17-12.28-8.03-15.79-5.06-3.03-12.57-2.62-17.12.98-4.76,3.76-6.53,8.81-6.34,14.81h31.49Z"/>
  <path class="cls-1" d="M240.78,302.45c0-7.4.03-14.02-.02-20.64-.01-2.02.3-3.87,2.79-3.5,1.01.15,1.95,1.39,2.7,2.31.32.39.08,1.24.08,1.89,0,19.94.03,39.88-.06,59.83,0,1.33-.67,2.9-1.55,3.89-.4.45-2.69.14-3.05-.46-.78-1.33-.88-3.07-1.36-5.04-5.03,6.02-11.6,7.51-18.81,6.3-7.02-1.18-11.34-5.71-13.51-12.3-2.86-8.68-2.94-17.52-.17-26.18,4.36-13.64,20.02-17.67,30.71-8.11.54.48,1.08.96,2.26,2.02ZM241.59,320.53c-.95-3.71-1.51-8.1-3.2-12.01-2.38-5.54-7.83-8.1-13.95-7.53-5.72.54-9.79,3.89-11.55,9.8-2.03,6.81-2.16,13.69-.17,20.53,1.97,6.8,6.08,10.27,12.13,10.5,7.23.28,12.06-2.74,14.42-9.7,1.18-3.46,1.47-7.23,2.3-11.6Z"/>
  <path class="cls-1" d="M159.46,340.56c-6.38,6.69-13.65,8.12-21.59,5.85-6.29-1.8-10.49-7.14-10.64-12.79-.17-6.58,3.07-11.44,9.08-13.33,6.92-2.17,14.21-3.16,21.33-4.66.49-.1.99-.19,1.44-.28,1.47-6.57-.71-11.64-5.73-13.5-6.74-2.49-14.16-.48-16.98,4.91-1.14,2.18-2.64,3.6-4.64,2.34-.84-.53-.91-3.5-.3-4.91,2.85-6.57,11.45-10.05,20.18-8.5,8.48,1.5,13.2,6.57,13.43,15.27.28,10.54.1,21.09.14,31.63,0,2.04.07,3.95-2.87,3.88-2.64-.07-2.74-1.78-2.68-3.71.01-.5-.07-1.01-.17-2.2ZM160.2,321.51c-.43-.49-.86-.98-1.29-1.47-7.11,1.83-14.29,3.44-21.31,5.58-3.12.95-4.85,3.72-4.84,7.16,0,3.59,2.01,5.96,5.04,7.55,7.31,3.84,17.01.67,20.03-7.02,1.44-3.68,1.62-7.85,2.37-11.8Z"/>
  <path class="cls-1" d="M138.58,263.39c-7.26-.82-13.61-2.54-18.13-8.21-1.06-1.33-1.92-4.59-1.24-5.23,1.95-1.83,4.01-.69,5.81,1.33,5.53,6.21,15.27,7.59,22.54,3.47,2.83-1.6,4.38-3.9,4.29-7.19-.09-3.08-1.82-5.11-4.56-6.07-4.11-1.43-8.32-2.54-12.48-3.82-2.33-.72-4.66-1.43-6.94-2.26-10.6-3.86-9.6-16.75-3.22-22.05,7.66-6.36,23.05-5.18,29.1,2.66,1.09,1.41,1.83,4.93,1.12,5.51-1.98,1.62-4.05.56-5.75-1.65-3.98-5.19-14.14-6.61-19.63-3.01-5.13,3.36-4.98,10.18.55,12.72,3.69,1.7,7.79,2.52,11.69,3.76,2.81.89,5.66,1.68,8.38,2.78,4.88,1.97,7.54,5.74,7.71,10.99.16,5.1-1.67,9.62-6.34,11.91-4.04,1.98-8.59,2.94-12.91,4.35Z"/>
  <path class="cls-1" d="M256.83,216.69c6.63-7.63,14.66-8.59,23.03-6.55,7.8,1.9,12.51,7.75,13.09,15.47.84,11.14.5,22.37.43,33.55,0,.8-1.96,2.26-2.93,2.2-.94-.06-2.54-1.66-2.57-2.61-.2-8.36.05-16.73-.2-25.09-.11-3.54-.55-7.26-1.81-10.52-2.54-6.54-9.04-9.27-17.03-7.88-6.41,1.12-11.55,6.43-11.87,13.38-.45,9.63-.21,19.29-.43,28.94-.03,1.31-.65,3.26-1.6,3.77-2.44,1.3-4.21-.21-4.22-3.33-.03-14.54-.01-29.08-.01-43.63,0-1.93-.36-3.95,2.65-4.08,3-.13,3.4,1.57,3.27,3.9-.03.5.08,1,.22,2.48Z"/>
  <path class="cls-1" d="M275.49,347.24c-6.63.09-12.52-1.7-16.45-7.39-.89-1.29-1.45-4.2-.71-4.96,1.85-1.9,3.55-.21,5.03,1.46,5.13,5.78,12.59,7.24,19.6,4.02,3.23-1.48,5-3.76,4.96-7.48-.03-3.55-2.03-5.49-5.01-6.51-5.45-1.87-11.12-3.18-16.44-5.36-8.57-3.51-10.5-13.87-4.16-20.67,5-5.36,14.97-6.74,22.13-2.68,2.37,1.34,4.44,3.46,6.13,5.63.73.94.16,2.9.19,4.39-1.57-.43-3.85-.36-4.59-1.39-3.92-5.47-9.25-6.08-15.11-4.89-4.13.84-6.64,3.69-6.88,7.29-.27,4.03,2.2,6.2,5.57,7.37,5.08,1.78,10.33,3.06,15.37,4.95,6.18,2.32,8.59,6.33,8.3,12.8-.33,7.34-6.25,12.71-14.83,13.4-1.02.08-2.06.01-3.09.01Z"/>
  <path class="cls-1" d="M184.67,301.98c3.99-5.35,9.32-5.92,14.82-5.52.93.07,2.2,1.8,2.41,2.93.12.64-1.52,2.24-2.5,2.36-13.22,1.6-15.11,3.65-15.11,16.9,0,7.71.03,15.41-.02,23.12-.01,2.05.76,4.71-2.82,4.67-3.41-.03-2.53-2.61-2.54-4.47-.05-13.74-.05-27.48,0-41.22,0-1.73-.9-4.19,2.21-4.39,3.32-.2,3.21,2.17,3.19,4.44,0,.24.13.48.35,1.19Z"/>
  <path class="cls-1" d="M176.61,236.07c0,7.33-.02,14.65.02,21.98.01,2-.17,3.52-2.8,3.56-2.61.04-3.34-1.23-3.34-3.55.03-14.78.03-29.56,0-44.34,0-2.16.74-3.36,3.12-3.39,2.45-.03,3.04,1.22,3.02,3.38-.06,7.45-.02,14.91-.02,22.36Z"/>
  <path class="cls-1" d="M173.61,191.63c3.34-.58,4.17,1.12,4.18,4.17,0,3.06-1.22,3.94-4.15,4.01-3.35.09-4.09-1.32-4.1-4.37-.02-3.09,1.06-4.31,4.08-3.82Z"/>
</svg>