<svg id="Layer_1" data-name="Layer 1" xmlns="http://www.w3.org/2000/svg" viewBox="0 0 320.99 225.6"><defs><style>.cls-1{fill:#fff;}</style></defs><path class="cls-1" d="M33.66,14.4,22.8,43.94H10.86L0,14.4H10.18l6.65,20.06L23.48,14.4Z"/><path class="cls-1" d="M36.77,5.32A5.07,5.07,0,0,1,42.07,0a5.09,5.09,0,0,1,5.35,5.32,5.1,5.1,0,0,1-5.35,5.3A5.07,5.07,0,0,1,36.77,5.32ZM47,43.94H37.27V14.4H47Z"/><path class="cls-1" d="M74.31,43.94,74,41.66c-1.76,1.79-5,2.9-8.68,2.9C57,44.56,51.54,38,51.54,29.23S57,13.79,65.33,13.79c4.46,0,7.23,1.57,9,3.72V.55H83.7V43.94Zm-13-14.77a6.42,6.42,0,0,0,6.52,6.71c3.63,0,6.31-2.77,6.31-6.71s-2.68-6.71-6.31-6.71A6.32,6.32,0,0,0,61.3,29.17Z"/><path class="cls-1" d="M111,43.94l-.3-3.11c-1.7,2.1-4.56,3.73-8.71,3.73-7.88,0-13.66-6.53-13.66-15.36S94.07,13.79,102,13.79a10.88,10.88,0,0,1,8.71,3.72l.3-3.11h9.39V43.94ZM97.89,29.2c0,4,2.61,6.8,6.37,6.8s6.37-2.8,6.37-6.8-2.62-6.77-6.37-6.8S97.89,25.2,97.89,29.2Z"/><path class="cls-1" d="M169.37,11.75A21.18,21.18,0,0,0,160.91,10c-2.89,0-5.42.92-5.42,3.85,0,1.88,1.79,3.69,5,6.71l8.4,8c1.05-1.33,1.94-4.16,1.85-7.33H180a21.2,21.2,0,0,1-4.56,13.45l9.39,9.26H173.16l-3.82-3.51A18.62,18.62,0,0,1,157,44.56c-8.65,0-16.8-4.13-16.8-13.48,0-4.83,3.32-9.29,7.63-11.32a10.28,10.28,0,0,1-2.43-7c0-8.09,7.51-11.26,15-11.26a24.08,24.08,0,0,1,9.73,2Zm-6.28,22.93-9.87-9.29a5.93,5.93,0,0,0-3.11,5c0,3.54,3,5.85,7.29,5.85A9.83,9.83,0,0,0,163.09,34.68Z"/><path class="cls-1" d="M23.66,107l-.3-3.1c-1.7,2.09-4.56,3.72-8.71,3.72C6.77,107.58,1,101.06,1,92.22S6.77,76.81,14.65,76.81a10.88,10.88,0,0,1,8.71,3.72l.3-3.11h9.39V107ZM10.59,92.22c0,4,2.61,6.8,6.36,6.8s6.37-2.8,6.37-6.8-2.61-6.77-6.37-6.8S10.59,88.22,10.59,92.22Z"/><path class="cls-1" d="M56.07,76.81a11.63,11.63,0,0,1,3.6.61l-.59,8.46a11.28,11.28,0,0,0-3.72-.64c-3.66,0-6.77,2-6.77,7.51V107H38.9V77.42H48l.3,4A8.3,8.3,0,0,1,56.07,76.81Z"/><path class="cls-1" d="M83.33,119.27V104.78c-1.75,1.69-5,2.8-8.68,2.8-8.33,0-13.78-6.52-13.78-15.33s5.45-15.44,13.78-15.44c4.47,0,7.24,1.57,9,3.72l.31-3.11H93v41.85ZM70.62,92.19a6.42,6.42,0,0,0,6.53,6.71c3.63,0,6.3-2.77,6.3-6.71s-2.67-6.71-6.3-6.71A6.32,6.32,0,0,0,70.62,92.19Z"/><path class="cls-1" d="M127.31,77.42v17.2c0,7.51-5.76,13-14.5,13s-14.18-5.45-14.18-12.77V77.42h9.69V93.89c0,2.92,1.94,4.86,4.49,4.86a4.54,4.54,0,0,0,4.8-4.86V77.42Z"/><path class="cls-1" d="M132.38,68.34a5.33,5.33,0,1,1,5.3,5.3A5.07,5.07,0,0,1,132.38,68.34ZM142.57,107h-9.69V77.42h9.69Z"/><path class="cls-1" d="M160.69,85.33v9.54c0,5,4.47,4.58,9.14,3.48l.68,7.87a25,25,0,0,1-7.85,1.36c-6.77,0-11.66-3.26-11.66-11.14V85.33h-4.71V77.42H151V67.94h9.39v9.48h8.33v7.91Z"/><path class="cls-1" d="M200.94,104.93a23.72,23.72,0,0,1-11,2.65c-11,0-17.51-6.09-17.51-15.39s6.43-15.38,15.14-15.38c8.55,0,16.15,5.63,14,17.88h-19.7c.5,3.41,4.16,4.7,8.13,4.7a25.77,25.77,0,0,0,9.66-1.72ZM192.88,89c0-2.3-1.94-4.49-5.2-4.49-3.57,0-5.57,2.06-5.81,4.49Z"/><path class="cls-1" d="M218.33,85.33v9.54c0,5,4.46,4.58,9.14,3.48l.68,7.87a25.06,25.06,0,0,1-7.85,1.36c-6.77,0-11.66-3.26-11.66-11.14V85.33h-4.71V77.42h4.71V67.94H218v9.48h8.34v7.91Z"/><path class="cls-1" d="M260.06,77.42v17.2c0,7.51-5.76,13-14.5,13s-14.18-5.45-14.18-12.77V77.42h9.69V93.89c0,2.92,1.94,4.86,4.49,4.86a4.54,4.54,0,0,0,4.8-4.86V77.42Z"/><path class="cls-1" d="M282.8,76.81a11.63,11.63,0,0,1,3.6.61l-.59,8.46a11.28,11.28,0,0,0-3.72-.64c-3.66,0-6.77,2-6.77,7.51V107h-9.69V77.42h9.14l.31,4A8.27,8.27,0,0,1,282.8,76.81Z"/><path class="cls-1" d="M310.28,107l-.31-3.1c-1.69,2.09-4.55,3.72-8.71,3.72-7.87,0-13.66-6.52-13.66-15.36s5.79-15.41,13.66-15.41A10.85,10.85,0,0,1,310,80.53l.31-3.11h9.38V107ZM297.2,92.22c0,4,2.62,6.8,6.37,6.8s6.37-2.8,6.37-6.8-2.62-6.77-6.37-6.8S297.2,88.22,297.2,92.22Z"/><path class="cls-1" d="M265.69,159.93a23.9,23.9,0,0,1-11.05,2.64c-10.95,0-17.51-6.09-17.51-15.38s6.43-15.39,15.14-15.39c8.56,0,16.16,5.63,14,17.88H246.58c.49,3.42,4.15,4.71,8.12,4.71a25.6,25.6,0,0,0,9.67-1.73ZM257.63,144c0-2.31-1.94-4.49-5.2-4.49-3.57,0-5.57,2.06-5.82,4.49Z"/><path class="cls-1" d="M310.19,145.53a4.62,4.62,0,0,0-4.84-4.87,4.74,4.74,0,0,0-5,4.87V162h-9.69V145.53a4.88,4.88,0,0,0-9.76,0V162h-9.69V132.42h8.89l.31,3.11c2.09-2.65,5.66-3.73,9.14-3.73,3.94,0,7.72,1.66,9.29,4.93a12,12,0,0,1,9.94-4.93c5.69,0,11.08,3.76,11.08,11V162h-9.69Z"/><path class="cls-1" d="M43.73,208.55a4.62,4.62,0,0,0-4.84-4.86,4.73,4.73,0,0,0-5,4.86V225H24.22V208.55a4.67,4.67,0,0,0-4.83-4.86,4.69,4.69,0,0,0-4.93,4.86V225H4.77V195.44h8.89l.31,3.11c2.09-2.65,5.66-3.73,9.14-3.73,3.94,0,7.72,1.67,9.29,4.93a12,12,0,0,1,9.94-4.93c5.69,0,11.08,3.76,11.08,11V225H43.73Z"/><path class="cls-1" d="M89.49,210.21c0,8.8-6.74,15.39-15.88,15.39S57.73,219,57.73,210.21s6.74-15.39,15.88-15.39S89.49,201.41,89.49,210.21Zm-22.16,0c0,4,2.58,6.8,6.28,6.8s6.27-2.8,6.27-6.8-2.58-6.8-6.27-6.8S67.33,206.21,67.33,210.21Z"/><path class="cls-1" d="M124.47,195.44,113.61,225H101.67L90.81,195.44H101l6.65,20.06,6.65-20.06Z"/><path class="cls-1" d="M127.58,186.36a5.33,5.33,0,1,1,5.3,5.29A5.07,5.07,0,0,1,127.58,186.36ZM137.77,225h-9.69V195.44h9.69Z"/><path class="cls-1" d="M182.57,208.55a4.62,4.62,0,0,0-4.83-4.86,4.73,4.73,0,0,0-5,4.86V225h-9.7V208.55a4.88,4.88,0,0,0-9.75,0V225h-9.69V195.44h8.89l.31,3.11c2.09-2.65,5.66-3.73,9.14-3.73,3.93,0,7.72,1.67,9.29,4.93a12,12,0,0,1,9.94-4.93c5.69,0,11.07,3.76,11.07,11V225h-9.69Z"/><path class="cls-1" d="M225.16,223a23.89,23.89,0,0,1-11,2.65c-11,0-17.5-6.1-17.5-15.39s6.43-15.39,15.13-15.39,16.16,5.64,14,17.88h-19.7c.49,3.42,4.16,4.71,8.13,4.71a25.81,25.81,0,0,0,9.66-1.72ZM217.1,207c0-2.31-1.94-4.49-5.2-4.49-3.57,0-5.57,2.06-5.82,4.49Z"/><path class="cls-1" d="M250.27,225V208.55a4.76,4.76,0,0,0-5-4.86,4.69,4.69,0,0,0-4.93,4.86V225H230.7V195.44h8.89l.31,3.11c2.09-2.65,5.66-3.73,9.14-3.73a10.61,10.61,0,0,1,10.93,11V225Z"/><path class="cls-1" d="M277.57,203.35v9.54c0,5,4.46,4.58,9.14,3.47l.67,7.88a25.24,25.24,0,0,1-7.84,1.36c-6.77,0-11.67-3.27-11.67-11.14V203.35h-4.7v-7.91h4.7V186h9.39v9.48h8.34v7.91Z"/><path class="cls-1" d="M321,210.21c0,8.8-6.74,15.39-15.88,15.39s-15.88-6.59-15.88-15.39,6.74-15.39,15.88-15.39S321,201.41,321,210.21Zm-22.16,0c0,4,2.59,6.8,6.28,6.8s6.28-2.8,6.28-6.8-2.59-6.8-6.28-6.8S298.83,206.21,298.83,210.21Z"/><rect class="cls-1" x="4.77" y="145.54" width="209.71" height="8.75"/></svg>