<svg id="Layer_1" data-name="Layer 1" xmlns="http://www.w3.org/2000/svg" viewBox="0 0 1143.68 1143.68"><defs><style>.cls-1{fill:#003b4d;}.cls-2{fill:#fff;fill-rule:evenodd;}</style></defs><circle class="cls-1" cx="571.84" cy="571.84" r="571.84"/><path class="cls-2" d="M842,377.76a314.75,314.75,0,0,0-224.12-92.92C443.22,284.84,301.09,427,301,601.64A316.39,316.39,0,0,0,343.31,760L298.36,924.21l168-44.05a316.59,316.59,0,0,0,151.4,38.56h.14c174.61,0,316.75-142.13,316.82-316.82A314.85,314.85,0,0,0,842,377.76ZM617.85,865.21h-.11a263,263,0,0,1-134-36.7l-9.61-5.71-99.67,26.14L401,751.77l-6.27-10a262.64,262.64,0,0,1-40.25-140.15C354.57,456.47,472.71,338.35,618,338.35A263.37,263.37,0,0,1,881.19,601.88C881.13,747.08,763,865.21,617.85,865.21ZM762.3,668c-7.92-4-46.84-23.11-54.1-25.76s-12.53-4-17.8,4S670,672,665.33,677.23s-9.24,5.95-17.16,2-33.42-12.33-63.66-39.3c-23.53-21-39.42-46.91-44-54.84s0-11.8,3.47-16.15c8.57-10.64,17.16-21.8,19.79-27.08s1.32-9.91-.66-13.87-17.81-42.93-24.4-58.78c-6.43-15.43-12.95-13.35-17.82-13.59-4.61-.23-9.89-.28-15.17-.28s-13.85,2-21.11,9.91-27.7,27.08-27.7,66,28.36,76.61,32.32,81.89S545,698.42,624.42,732.71a454.75,454.75,0,0,0,45.14,16.68c19,6,36.21,5.17,49.86,3.13,15.21-2.27,46.83-19.15,53.43-37.64s6.6-34.34,4.62-37.65S770.21,672,762.3,668Z" transform="translate(-31.25 -33.02)"/></svg>